Coordinates
version=1
nRows=34
nColumns=34
inDegrees=no

Units are S.I. units (second, meters, Newtons, ...)
If the header above contains a line with 'inDegrees', this indicates whether rotational values are in degrees (yes) or radians (no).

endheader
time	pelvis_tilt	pelvis_list	pelvis_rotation	pelvis_tx	pelvis_ty	pelvis_tz	hip_flexion_r	hip_adduction_r	hip_rotation_r	knee_angle_r	ankle_angle_r	subtalar_angle_r	mtp_angle_r	hip_flexion_l	hip_adduction_l	hip_rotation_l	knee_angle_l	ankle_angle_l	subtalar_angle_l	mtp_angle_l	lumbar_extension	lumbar_bending	lumbar_rotation	arm_flex_r	arm_add_r	arm_rot_r	elbow_flex_r	pro_sup_r	arm_flex_l	arm_add_l	arm_rot_l	elbow_flex_l	pro_sup_l
2.3	-0.18142	-0.03375	0.0568974	-0.213185	1.20285	-0.590762	0.293132	-0.132252	-0.313708	0.293831	-0.663976	-0.0340122	-0.120101	0.31164	-0.121327	-0.274099	0.262885	-0.618162	0.17508	-0.120097	-0.090073	0.0147953	0.00393629	0.749888	-0.489818	0.149568	2.55658	1.38082	0.499734	-0.457795	0.178105	2.46585	1.6148
2.31	-0.173439	-0.0355314	0.0644825	-0.214802	1.21363	-0.590374	0.289855	-0.128453	-0.311425	0.292362	-0.651313	-0.0444103	-0.120101	0.314834	-0.121901	-0.246138	0.279437	-0.606416	0.179189	-0.120097	-0.108756	0.0129614	0.00214011	0.721157	-0.473891	0.144599	2.55253	1.39256	0.481765	-0.441931	0.183543	2.46341	1.62112
2.32	-0.167471	-0.0379096	0.0717396	-0.21629	1.22327	-0.589888	0.285489	-0.123096	-0.32014	0.280916	-0.63635	-0.0441842	-0.120101	0.317511	-0.123021	-0.226429	0.287845	-0.592885	0.191198	-0.120097	-0.124576	0.0115379	0.000769618	0.693732	-0.45918	0.143615	2.55002	1.40993	0.465275	-0.425843	0.192085	2.45816	1.62816
2.33	-0.164018	-0.0405373	0.0781098	-0.21763	1.23172	-0.5893	0.281367	-0.116734	-0.337777	0.261902	-0.620183	-0.033808	-0.120101	0.320133	-0.124508	-0.215494	0.288721	-0.578468	0.208443	-0.120097	-0.136807	0.010168	-0.000261789	0.667731	-0.445008	0.146806	2.5485	1.43136	0.44956	-0.410245	0.20245	2.4507	1.63567
2.34	-0.163334	-0.0430591	0.0831722	-0.21883	1.23891	-0.588612	0.27879	-0.109966	-0.361325	0.238239	-0.603965	-0.0147503	-0.120101	0.323167	-0.126112	-0.212882	0.283282	-0.564127	0.227851	-0.120098	-0.145129	0.0084884	-0.000993932	0.643316	-0.430937	0.153953	2.54748	1.45475	0.43418	-0.395693	0.213567	2.44171	1.64317
2.35	-0.165433	-0.0451701	0.0866933	-0.219916	1.24486	-0.587831	0.278844	-0.103363	-0.387319	0.21289	-0.588719	0.0106289	-0.120101	0.327051	-0.127574	-0.217449	0.273141	-0.550697	0.246534	-0.120098	-0.149595	0.0061903	-0.00141547	0.62062	-0.416817	0.164401	2.54656	1.47815	0.418979	-0.382525	0.224657	2.43178	1.65016
2.36	-0.170126	-0.0466662	0.0886575	-0.220933	1.24956	-0.586964	0.282248	-0.0974069	-0.412353	0.188469	-0.575186	0.0393849	-0.120101	0.332152	-0.128682	-0.227593	0.260092	-0.538726	0.262257	-0.120098	-0.150553	0.00307129	-0.00147892	0.599689	-0.402774	0.177091	2.54549	1.50013	0.404075	-0.370847	0.235272	2.42144	1.65626
2.37	-0.177045	-0.0474702	0.0892607	-0.221929	1.25307	-0.58603	0.289271	-0.092454	-0.433591	0.166974	-0.563787	0.0684342	-0.120101	0.338735	-0.129313	-0.241456	0.245901	-0.528411	0.273707	-0.120098	-0.148591	-0.000941075	-0.00112849	0.58048	-0.389136	0.190684	2.54424	1.51995	0.389804	-0.36058	0.245276	2.41108	1.66123
2.38	-0.18567	-0.0476242	0.0888688	-0.222948	1.25541	-0.585059	0.299712	-0.0887338	-0.449167	0.149681	-0.554665	0.0950142	-0.120101	0.346892	-0.129435	-0.257092	0.232119	-0.519638	0.280563	-0.120098	-0.144478	-0.00579367	-0.000338466	0.562892	-0.376312	0.203765	2.54291	1.53736	0.376634	-0.351529	0.254762	2.40095	1.66495
2.39	-0.195329	-0.0472313	0.0879459	-0.224021	1.25665	-0.584085	0.312934	-0.0863635	-0.458402	0.137176	-0.547785	0.117031	-0.120101	0.356478	-0.129092	-0.272621	0.219931	-0.512106	0.283348	-0.120098	-0.139126	-0.0113298	0.00085289	0.546834	-0.364676	0.21508	2.54166	1.5524	0.365059	-0.343486	0.263935	2.3912	1.66727
2.4	-0.205214	-0.0463964	0.0869763	-0.225165	1.25685	-0.583147	0.327951	-0.085377	-0.461766	0.129483	-0.542989	0.133268	-0.120101	0.367053	-0.12836	-0.286379	0.210065	-0.505465	0.283136	-0.120098	-0.133543	-0.0173367	0.00233651	0.532262	-0.354473	0.223712	2.54069	1.56515	0.355513	-0.336297	0.272992	2.38191	1.66813
2.41	-0.21448	-0.045226	0.086407	-0.226382	1.25609	-0.582269	0.343567	-0.0857488	-0.460587	0.126212	-0.540019	0.143406	-0.120102	0.377913	-0.127312	-0.297057	0.202806	-0.499426	0.281179	-0.120099	-0.128755	-0.0236031	0.00396144	0.519194	-0.345801	0.229168	2.54011	1.57566	0.348306	-0.329895	0.282061	2.37305	1.66749
2.42	-0.222381	-0.0438304	0.0865868	-0.227655	1.25441	-0.581475	0.358596	-0.0873921	-0.456628	0.126713	-0.538505	0.147897	-0.120102	0.388265	-0.126017	-0.303788	0.198105	-0.493776	0.278569	-0.120099	-0.12564	-0.0299073	0.00554661	0.507679	-0.338636	0.231397	2.53995	1.58382	0.343545	-0.324271	0.29116	2.36453	1.66536
2.43	-0.22835	-0.0423255	0.0877291	-0.228959	1.25188	-0.580782	0.372013	-0.0901644	-0.451625	0.130207	-0.53797	0.147754	-0.120102	0.397366	-0.124539	-0.306213	0.195709	-0.488363	0.276049	-0.120099	-0.124828	-0.0360343	0.00691243	0.497769	-0.332864	0.230717	2.54012	1.58951	0.341121	-0.319453	0.3002	2.35618	1.66183
2.44	-0.23204	-0.0408172	0.0899047	-0.230262	1.24854	-0.580195	0.383054	-0.093875	-0.446943	0.135878	-0.537871	0.144308	-0.120102	0.404625	-0.122951	-0.304465	0.195284	-0.48305	0.273975	-0.120099	-0.126657	-0.0417918	0.00791529	0.489487	-0.328319	0.227703	2.54043	1.59269	0.340735	-0.315485	0.309017	2.34781	1.65707
2.45	-0.233351	-0.0393859	0.0930537	-0.231529	1.24438	-0.579715	0.391288	-0.0983005	-0.443416	0.142956	-0.53767	0.138983	-0.120102	0.409692	-0.121337	-0.299087	0.196497	-0.477713	0.272382	-0.120099	-0.131153	-0.0470156	0.00847357	0.48279	-0.324818	0.223063	2.54063	1.59344	0.341934	-0.312398	0.317406	2.3392	1.65137
2.46	-0.232424	-0.038094	0.0970085	-0.232729	1.23941	-0.579337	0.396653	-0.103204	-0.441344	0.15078	-0.536924	0.133107	-0.120102	0.412509	-0.119792	-0.290893	0.19905	-0.472278	0.271103	-0.120099	-0.138022	-0.0515727	0.00858319	0.477537	-0.32219	0.217514	2.54044	1.59198	0.344165	-0.310201	0.325157	2.33011	1.64515
2.47	-0.229631	-0.0369944	0.101526	-0.233841	1.23358	-0.579051	0.399444	-0.108353	-0.44061	0.158828	-0.535382	0.127745	-0.120102	0.4133	-0.118425	-0.280812	0.202671	-0.466804	0.26987	-0.1201	-0.146689	-0.0553587	0.00831974	0.473472	-0.320303	0.211686	2.53963	1.58864	0.346828	-0.308862	0.332076	2.32034	1.63886
2.48	-0.225516	-0.0361407	0.106322	-0.234856	1.22686	-0.578839	0.400227	-0.113541	-0.440824	0.166712	-0.533048	0.123599	-0.120102	0.412502	-0.117335	-0.269749	0.207067	-0.461569	0.268402	-0.1201	-0.156386	-0.0583141	0.00783169	0.47023	-0.319069	0.206061	2.53802	1.5839	0.349334	-0.30832	0.338018	2.3098	1.63287
2.49	-0.220664	-0.0355564	0.111102	-0.235766	1.2192	-0.578685	0.39967	-0.118609	-0.441458	0.174153	-0.530218	0.120934	-0.120102	0.410586	-0.11659	-0.258518	0.211881	-0.457119	0.266489	-0.1201	-0.166345	-0.0604688	0.00733252	0.467378	-0.318419	0.200935	2.53552	1.57832	0.351199	-0.308517	0.342894	2.29846	1.62739
2.5	-0.215608	-0.0352296	0.115593	-0.236568	1.21057	-0.578567	0.398412	-0.123451	-0.441959	0.180953	-0.527453	0.119579	-0.120103	0.407969	-0.116231	-0.247773	0.216709	-0.454195	0.264045	-0.1201	-0.175904	-0.0619375	0.00707299	0.464462	-0.318288	0.196443	2.53211	1.57248	0.352092	-0.309408	0.346685	2.28642	1.62249
2.51	-0.210779	-0.0351265	0.119565	-0.237266	1.20093	-0.578463	0.396988	-0.128012	-0.441857	0.186982	-0.525491	0.119	-0.120103	0.40498	-0.116282	-0.237958	0.221166	-0.453566	0.261128	-0.1201	-0.184574	-0.0628893	0.00730467	0.461059	-0.318612	0.192596	2.52783	1.56688	0.351835	-0.310968	0.349429	2.27378	1.6181
2.52	-0.20648	-0.0352114	0.122853	-0.237865	1.19025	-0.578352	0.395804	-0.132277	-0.440838	0.192206	-0.525098	0.118442	-0.120103	0.40186	-0.116769	-0.229236	0.22497	-0.455767	0.257901	-0.1201	-0.192055	-0.0635034	0.00824212	0.456827	-0.319318	0.189339	2.52278	1.56181	0.350398	-0.313195	0.351206	2.26069	1.61411
2.53	-0.202885	-0.0354661	0.125355	-0.238375	1.17852	-0.578214	0.395134	-0.136264	-0.438757	0.196725	-0.526868	0.117111	-0.120103	0.398775	-0.117721	-0.22146	0.227998	-0.460829	0.254578	-0.120101	-0.198225	-0.0639274	0.0100352	0.451539	-0.320326	0.186599	2.51711	1.55734	0.347862	-0.316106	0.352118	2.24731	1.61035
2.54	-0.200044	-0.0358993	0.127038	-0.23881	1.16574	-0.578033	0.395157	-0.139997	-0.435585	0.20083	-0.530997	0.114344	-0.120103	0.395842	-0.119177	-0.214198	0.23035	-0.468033	0.251373	-0.120101	-0.20311	-0.0642434	0.012755	0.445094	-0.321547	0.184315	2.51097	1.55334	0.344386	-0.319738	0.352266	2.23379	1.60666
2.55	-0.197885	-0.0365429	0.12793	-0.239181	1.15192	-0.577806	0.396009	-0.143489	-0.431314	0.205046	-0.537044	0.109728	-0.120103	0.393178	-0.121184	-0.206817	0.232414	-0.475737	0.248456	-0.120101	-0.206835	-0.0644506	0.0163896	0.437516	-0.322895	0.182444	2.50454	1.54964	0.340182	-0.324135	0.351738	2.22032	1.60288
2.56	-0.196285	-0.0374484	0.128119	-0.239508	1.13704	-0.57753	0.397832	-0.146729	-0.425841	0.210188	-0.543699	0.103164	-0.120103	0.390945	-0.123788	-0.198598	0.234918	-0.48132	0.245927	-0.120101	-0.209607	-0.064465	0.0208464	0.428931	-0.32429	0.18094	2.49793	1.54621	0.335499	-0.329339	0.3506	2.20707	1.5989
2.57	-0.195137	-0.0387017	0.12775	-0.239831	1.12113	-0.57721	0.400834	-0.149682	-0.418868	0.217372	-0.548619	0.0948417	-0.120103	0.389411	-0.127003	-0.188816	0.238967	-0.481244	0.24376	-0.120101	-0.21169	-0.064153	0.0259594	0.419542	-0.325654	0.179712	2.49126	1.54329	0.330621	-0.335374	0.348912	2.19423	1.59468
2.58	-0.194382	-0.040392	0.127022	-0.240196	1.10418	-0.576857	0.405352	-0.152294	-0.409866	0.228004	-0.548408	0.0851548	-0.120103	0.389017	-0.130771	-0.176773	0.24602	-0.471277	0.241762	-0.120101	-0.213382	-0.0633624	0.0315058	0.409585	-0.32692	0.178585	2.48454	1.54137	0.325882	-0.342228	0.346758	2.18195	1.59019
2.59	-0.194021	-0.0425935	0.126197	-0.240666	1.08619	-0.576484	0.411909	-0.154516	-0.398141	0.243716	-0.538817	0.0745809	-0.120104	0.390453	-0.134917	-0.161795	0.257825	-0.446909	0.239567	-0.120102	-0.214972	-0.0619608	0.0372227	0.399297	-0.328028	0.177274	2.47777	1.5412	0.321676	-0.349842	0.344259	2.17035	1.58546
2.6	-0.194151	-0.045353	0.125592	-0.24132	1.06716	-0.57611	0.42125	-0.156327	-0.382988	0.266233	-0.515244	0.0635303	-0.120104	0.394713	-0.13912	-0.143245	0.276284	-0.404009	0.236645	-0.120102	-0.216728	-0.0598608	0.0428203	0.388888	-0.328924	0.175389	2.47085	1.54363	0.318463	-0.358085	0.34158	2.15946	1.58051
2.61	-0.194964	-0.0486903	0.125573	-0.242272	1.04709	-0.575754	0.434327	-0.157759	-0.363916	0.297182	-0.47354	0.0521994	-0.120104	0.403103	-0.142914	-0.120611	0.303256	-0.339779	0.232333	-0.120102	-0.21888	-0.0570244	0.0479845	0.378544	-0.329547	0.172468	2.46359	1.54948	0.316731	-0.366757	0.338886	2.14922	1.57538
2.62	-0.19674	-0.0526084	0.126528	-0.243644	1.02593	-0.575442	0.452245	-0.158923	-0.340893	0.337842	-0.411097	0.0404379	-0.120104	0.417198	-0.145722	-0.093655	0.340315	-0.253869	0.22587	-0.120102	-0.22164	-0.0534524	0.0523759	0.368447	-0.329813	0.168022	2.45572	1.55931	0.316956	-0.375589	0.336298	2.13947	1.57005
2.63	-0.199948	-0.0571017	0.128854	-0.245728	1.00388	-0.575166	0.476111	-0.16001	-0.314524	0.388908	-0.327951	0.0276773	-0.120104	0.438691	-0.146938	-0.0625556	0.388535	-0.149247	0.216486	-0.120102	-0.225256	-0.0491457	0.0556457	0.358782	-0.329609	0.16158	2.44687	1.57323	0.319538	-0.384261	0.333846	2.12999	1.56456
